<svg xmlns="http://www.w3.org/2000/svg"><style>:root svg:not(:target){display:none}</style><svg viewBox="0 0 32 12" id="arrow"><path stroke="#000" stroke-width="2" d="M0 6h18"></path><path d="m24 6-6.75 5.2v-10.4l6.75 5.2Z"></path></svg><svg viewBox="0 0 168 37" fill="none" id="footer-html-academy-logo"><path d="M15.69 24.5h-1.56v-5.22h-6.18v5.22h-1.56v-11.46h1.56v5.1h6.18v-5.1h1.56v11.46Zm10.6-11.46v1.3h-3.7v10.16h-1.55v-10.16h-3.72v-1.3h8.97Zm7.27 7.32a10.22 10.22 0 0 1 .36.83 6.35 6.35 0 0 1 .37-.84l3.88-7.05c.07-.12.14-.2.22-.22a1 1 0 0 1 .32-.04h1.14v11.46h-1.36v-8.42a8.56 8.56 0 0 1 .03-.76l-3.92 7.17c-.14.24-.32.36-.56.36h-.23c-.24 0-.43-.12-.56-.36l-4.01-7.19a5.5 5.5 0 0 1 .04.78v8.42h-1.36v-11.46h1.15a1 1 0 0 1 .32.04c.07.02.14.1.21.22l3.96 7.06Zm10.63 2.84h4.96v1.3h-6.5v-11.46h1.54v10.16Zm19.2 1.3h-1.2a.52.52 0 0 1-.34-.1.64.64 0 0 1-.2-.27l-1.06-2.77h-5.15l-1.07 2.77c-.04.1-.1.18-.2.26a.5.5 0 0 1-.33.11h-1.2l4.59-11.46h1.57l4.59 11.46Zm-7.52-4.26h4.28l-1.8-4.66a8.72 8.72 0 0 1-.34-1.08 15 15 0 0 1-.34 1.09l-1.8 4.65Zm14.26-2.4a.63.63 0 0 1-.12.13.3.3 0 0 1-.19.05.49.49 0 0 1-.26-.1 2.94 2.94 0 0 0-.88-.44c-.2-.07-.46-.1-.75-.1a2.32 2.32 0 0 0-1.82.82c-.2.27-.36.6-.46.97a4.96 4.96 0 0 0 .01 2.59c.11.37.27.7.47.96a2.08 2.08 0 0 0 1.72.79c.35 0 .64-.04.86-.12a2.73 2.73 0 0 0 .93-.55c.1-.09.19-.13.29-.13.12 0 .2.04.27.13l.4.52c-.35.44-.8.75-1.32.96-.53.2-1.09.3-1.67.3a3.53 3.53 0 0 1-2.55-1.09c-.32-.36-.57-.8-.76-1.32a5.33 5.33 0 0 1-.27-1.77c0-.6.08-1.16.25-1.67a3.5 3.5 0 0 1 1.93-2.19 4.2 4.2 0 0 1 1.64-.31 3.55 3.55 0 0 1 2.66 1.06l-.38.5Zm7.9 6.66h-.64a.75.75 0 0 1-.33-.06c-.09-.05-.14-.14-.17-.28l-.16-.75c-.21.2-.42.37-.62.52a3.45 3.45 0 0 1-2.2.7 3 3 0 0 1-.9-.13 1.94 1.94 0 0 1-1.2-1.06 2.4 2.4 0 0 1-.17-.96c0-.32.09-.63.27-.92.17-.3.45-.57.84-.8.4-.23.91-.41 1.55-.56a11.5 11.5 0 0 1 2.33-.25v-.63c0-.63-.14-1.1-.41-1.43-.27-.32-.67-.49-1.2-.49-.34 0-.63.05-.87.14a4.39 4.39 0 0 0-1.07.6.64.64 0 0 1-.37.12.46.46 0 0 1-.25-.07.64.64 0 0 1-.17-.2l-.26-.45a4.47 4.47 0 0 1 3.17-1.29c.46 0 .86.08 1.21.23a2.48 2.48 0 0 1 1.43 1.59c.12.38.19.8.19 1.25v5.18Zm-3.7-.87c.25 0 .48-.03.69-.07a2.92 2.92 0 0 0 1.11-.56c.17-.14.34-.29.5-.46v-1.69c-.66.02-1.22.08-1.68.16a4.9 4.9 0 0 0-1.12.32c-.28.14-.5.3-.63.47-.13.19-.19.39-.19.61 0 .22.03.4.1.55.07.16.17.29.28.39.12.1.26.17.42.21.16.05.33.07.52.07Zm11.56.87c-.2 0-.33-.1-.39-.3l-.12-.98a4.3 4.3 0 0 1-1.2 1.02c-.44.25-.95.37-1.52.37a2.66 2.66 0 0 1-2.23-1.06 3.76 3.76 0 0 1-.62-1.29 6.67 6.67 0 0 1 .02-3.45c.16-.52.4-.96.69-1.34a3.24 3.24 0 0 1 2.58-1.22 2.9 2.9 0 0 1 2.21.96v-4.5h1.43v11.79h-.85Zm-2.76-1.04c.46 0 .87-.1 1.21-.32.36-.21.68-.51.97-.9v-3.92a2.2 2.2 0 0 0-1.9-.96c-.75 0-1.33.27-1.74.81-.4.54-.6 1.3-.6 2.3 0 .53.04.99.13 1.37.09.37.22.68.4.92.18.24.4.42.65.53.25.11.55.17.88.17Zm9.2-7.2c.48 0 .93.1 1.34.26a2.95 2.95 0 0 1 1.76 1.84c.17.44.26.96.26 1.53 0 .23-.02.38-.07.45s-.14.11-.27.11h-5.4c.01.51.08.96.21 1.34.13.38.3.7.53.95.22.25.49.44.8.57.3.12.66.18 1.04.18a3.1 3.1 0 0 0 1.6-.39l.46-.26a.63.63 0 0 1 .32-.13c.12 0 .21.04.28.13l.4.52c-.18.22-.4.4-.64.56a4.67 4.67 0 0 1-1.66.6 4.2 4.2 0 0 1-2.44-.2 3.51 3.51 0 0 1-2.02-2.18 5.51 5.51 0 0 1-.03-3.44 3.45 3.45 0 0 1 1.95-2.12c.46-.2 1-.31 1.58-.31Zm.03 1.06c-.69 0-1.23.2-1.62.6-.4.4-.64.94-.74 1.64h4.4c0-.33-.04-.63-.13-.9a1.9 1.9 0 0 0-1.04-1.18 2.1 2.1 0 0 0-.87-.16Zm5.15 7.18v-8.1h.85c.2 0 .33.1.38.3l.1.82c.3-.36.64-.67 1-.9.38-.23.81-.35 1.3-.35.55 0 1 .15 1.33.45.34.3.59.72.74 1.24a2.57 2.57 0 0 1 1.06-1.3c.23-.13.47-.23.73-.3a3.31 3.31 0 0 1 1.93.12c.33.13.62.33.85.59.23.26.4.58.53.97.12.37.19.8.19 1.3v5.16h-1.43v-5.16c0-.63-.14-1.11-.41-1.44a1.5 1.5 0 0 0-1.21-.5 1.8 1.8 0 0 0-1.23.5c-.16.15-.28.35-.38.6-.1.24-.14.52-.14.84v5.16h-1.42v-5.16c0-.65-.13-1.14-.4-1.46-.25-.32-.63-.48-1.14-.48-.35 0-.68.1-.98.3-.3.18-.57.43-.82.76v6.04h-1.43Zm15.27 2.4a.79.79 0 0 1-.19.25c-.06.06-.17.1-.32.1h-1.06l1.48-3.22-3.34-7.63h1.23a.4.4 0 0 1 .29.1c.07.05.12.12.15.2l2.17 5.1.12.35.1.36.1-.36.13-.36 2.1-5.1a.44.44 0 0 1 .17-.2.43.43 0 0 1 .25-.1h1.14l-4.52 10.5Z" fill="#444"></path><g clip-path="url(#footer-html-academy-logo_0)"><path d="m154.64 1.52-.14-.02-13.5 1.4v24.61l13.5 7.99 13.5-7.99v-24.6l-13.36-1.4Zm11.6 25-11.74 6.94-11.73-6.94v-10.1l11.68 6.93.02 1.25-8.02-4.75v1.23l8.04 4.8.02 1.3-8.05-4.76v1.22l8.04 4.81 8.12-4.83v-5.21l3.62-2.15v10.26Zm0-11.57-3.23 1.88-1.48.88-7.06-4.19-.01 1.23 6.04 3.57-.06.03-.13.07-.86.5-4.98-2.95-.01 1.22 3.93 2.33-.93.61-.02.01-2.97-1.74-.01 1.23 1.94 1.13-1.98 1.19-11.62-6.87 11.63-6.96 11.8 6.83Zm0-1.22-11.8-6.92-11.67 6.91v-9.23l11.73-1.23 11.73 1.23v9.24Z" fill="#666"></path></g><defs><clipPath id="footer-html-academy-logo_0"><path fill="#fff" transform="translate(141 1.5)" d="M0 0h27v34h-27z"></path></clipPath></defs></svg><svg viewBox="0 0 121 227" fill="none" id="four"><path d="M66.32 227v-60.76h-65.8v-31.36l59.08-134.68h35.28v139.44h25.48v26.6h-25.48v60.76h-28.56Zm-36.96-87.36h36.96v-103.04l-36.96 103.04Z" fill="#F2F2F2"></path></svg><svg viewBox="0 0 27 34" id="html-academy-icon"><path d="m13.64.02-.14-.02-13.5 1.4v24.61l13.5 7.99 13.5-7.99v-24.6l-13.36-1.4Zm11.6 25-11.74 6.94-11.73-6.94v-10.1l11.68 6.93.02 1.25-8.02-4.75v1.23l8.04 4.8.02 1.3-8.05-4.76v1.22l8.04 4.81 8.12-4.83v-5.21l3.62-2.15v10.26Zm0-11.57-3.23 1.88-1.48.88-7.06-4.19-.01 1.23 6.04 3.57-.06.03-.13.07-.86.5-4.98-2.95-.01 1.22 3.93 2.33-.93.61-.02.01-2.97-1.74-.01 1.23 1.94 1.13-1.98 1.19-11.62-6.87 11.63-6.96 11.8 6.83Zm0-1.22-11.8-6.92-11.67 6.91v-9.23l11.73-1.23 11.73 1.23v9.24Z"></path></svg><svg viewBox="0 0 112 15" id="html-academy-text"><path d="M9.75.54v11.46h-1.55v-5.22h-6.18v5.22h-1.56v-11.46h1.56v5.1h6.18v-5.1h1.55Zm10.68 1.3h-3.7v10.16h-1.55v-10.16h-3.72v-1.3h8.97v1.3Zm13.63-1.3v11.46h-1.36v-8.42a8.56 8.56 0 0 1 .04-.76l-3.93 7.17a.6.6 0 0 1-.56.36h-.23c-.25 0-.43-.12-.56-.36l-4.01-7.2a7 7 0 0 1 .05.79v8.42h-1.36v-11.46h1.14a1 1 0 0 1 .32.04c.07.02.15.1.22.22l3.96 7.06a6.97 6.97 0 0 1 .36.82 9.93 9.93 0 0 1 .36-.83l3.88-7.05c.07-.12.14-.2.21-.22.08-.03.2-.04.33-.04h1.14Zm9.44 10.16v1.3h-6.5v-11.46h1.54v10.16h4.96Zm10.88-2.96-1.8-4.66a9.55 9.55 0 0 1-.34-1.07c-.1.43-.22.79-.34 1.08l-1.8 4.65h4.28Zm3.23 4.26h-1.2a.52.52 0 0 1-.33-.1.64.64 0 0 1-.2-.27l-1.07-2.77h-5.14l-1.07 2.77c-.04.1-.1.18-.19.26a.52.52 0 0 1-.33.11h-1.2l4.58-11.46h1.57l4.58 11.46Zm6.6-6.66a.64.64 0 0 1-.13.13.29.29 0 0 1-.18.05.49.49 0 0 1-.26-.1 3.65 3.65 0 0 0-.88-.44c-.2-.07-.46-.1-.75-.1-.4 0-.76.07-1.06.22-.3.13-.56.34-.77.6-.2.27-.36.6-.46.97-.1.38-.15.8-.15 1.27 0 .5.05.93.16 1.32.12.37.27.7.48.96.2.25.45.45.74.59.3.13.62.2.98.2.35 0 .64-.04.86-.12.22-.09.4-.18.55-.28l.37-.27c.1-.09.2-.13.3-.13.11 0 .2.04.27.13l.4.52c-.18.22-.38.4-.6.56a3.81 3.81 0 0 1-1.54.62 4.9 4.9 0 0 1-.86.07c-.5 0-.98-.1-1.42-.28a3.29 3.29 0 0 1-1.88-2.12 5.33 5.33 0 0 1-.27-1.77c0-.6.08-1.16.25-1.67a3.5 3.5 0 0 1 1.93-2.19c.47-.2 1.01-.31 1.63-.31a3.55 3.55 0 0 1 2.66 1.06l-.37.5Zm6.39 3.01c-.66.02-1.22.08-1.68.16-.46.08-.84.19-1.13.32-.29.14-.5.3-.63.47-.13.19-.2.39-.2.61 0 .22.04.4.11.55.07.16.16.29.28.39.12.1.26.17.42.21.17.05.35.07.53.07a2.65 2.65 0 0 0 1.27-.3 4.36 4.36 0 0 0 1.02-.8v-1.68Zm-4.6-3.31a4.47 4.47 0 0 1 3.17-1.29c.45 0 .85.08 1.2.23a2.48 2.48 0 0 1 1.44 1.59c.12.38.18.8.18 1.25v5.18h-.63a.65.65 0 0 1-.32-.06c-.08-.05-.14-.14-.18-.28l-.16-.76c-.21.2-.42.37-.62.52a3.45 3.45 0 0 1-1.36.62 3.69 3.69 0 0 1-1.73-.04c-.28-.1-.52-.22-.73-.4-.2-.18-.36-.4-.49-.66a2.6 2.6 0 0 1-.17-.96c0-.32.09-.63.26-.92.18-.3.46-.57.86-.8.4-.23.9-.41 1.54-.56.64-.15 1.42-.23 2.34-.25v-.63c0-.63-.14-1.1-.41-1.43-.27-.32-.67-.49-1.2-.49a2.53 2.53 0 0 0-1.5.44c-.17.1-.32.2-.44.3a.64.64 0 0 1-.37.12.42.42 0 0 1-.25-.07.76.76 0 0 1-.18-.2l-.25-.45Zm13.44.78c-.27-.35-.56-.6-.86-.74a2.51 2.51 0 0 0-1.04-.22c-.76 0-1.34.27-1.74.81-.4.54-.6 1.3-.6 2.3 0 .53.04.99.13 1.37.09.37.22.68.4.92.17.24.39.42.65.53.25.11.54.17.87.17.47 0 .87-.1 1.22-.32.35-.21.68-.51.97-.9v-3.92Zm1.42-5.6v11.78h-.84c-.2 0-.34-.1-.39-.3l-.13-.98c-.34.42-.74.75-1.18 1a3 3 0 0 1-1.54.4 2.66 2.66 0 0 1-2.23-1.06 3.75 3.75 0 0 1-.61-1.3 6.67 6.67 0 0 1 .02-3.45c.16-.52.39-.96.69-1.34a3.16 3.16 0 0 1 2.57-1.22 2.9 2.9 0 0 1 2.22.95v-4.48h1.42Zm7.68 6.84c0-.33-.05-.63-.15-.9a1.92 1.92 0 0 0-1.93-1.34c-.68 0-1.22.2-1.62.6-.4.4-.64.94-.74 1.64h4.44Zm1.15 3.8c-.18.22-.39.4-.63.56a4.03 4.03 0 0 1-1.66.61c-.3.06-.6.08-.89.08a4.2 4.2 0 0 1-1.55-.28 3.51 3.51 0 0 1-2.02-2.19 5.51 5.51 0 0 1-.04-3.44 3.68 3.68 0 0 1 1.95-2.12 3.87 3.87 0 0 1 2.93-.06 3.1 3.1 0 0 1 1.78 1.84c.17.44.26.96.26 1.53 0 .23-.03.38-.08.45-.04.07-.13.11-.27.11h-5.41c.01.51.08.96.2 1.34a2.35 2.35 0 0 0 1.33 1.52c.31.12.66.18 1.04.18a3.1 3.1 0 0 0 1.6-.39c.18-.1.34-.18.46-.26a.63.63 0 0 1 .33-.13c.11 0 .2.04.27.13l.4.52Zm1.88 1.14v-8.1h.85c.2 0 .33.1.38.3l.1.82c.3-.36.64-.67 1-.9.38-.23.81-.35 1.3-.35.55 0 .99.15 1.33.45.34.3.58.72.73 1.24a2.65 2.65 0 0 1 1.8-1.6 3.32 3.32 0 0 1 1.93.12c.34.13.62.33.85.59.23.26.41.58.53.97.13.37.19.8.19 1.3v5.16h-1.43v-5.16c0-.63-.14-1.11-.42-1.44-.28-.33-.68-.5-1.2-.5a1.8 1.8 0 0 0-1.22.5c-.16.15-.3.35-.39.6a2.4 2.4 0 0 0-.13.84v5.16h-1.44v-5.16c0-.65-.13-1.14-.39-1.46-.26-.32-.64-.48-1.14-.48-.35 0-.68.1-.98.3-.3.18-.57.43-.82.76v6.04h-1.43Zm19.94-8.1-4.52 10.5c-.05.1-.1.18-.18.25a.5.5 0 0 1-.33.1h-1.06l1.48-3.22-3.34-7.63h1.23c.12 0 .22.03.29.1.07.05.12.12.15.2l2.17 5.1c.08.22.16.45.21.7.08-.25.16-.49.25-.71l2.1-5.1a.44.44 0 0 1 .16-.2.44.44 0 0 1 .26-.1h1.13Z"></path></svg><svg viewBox="0 0 67 50" fill="none" id="icon-cat-pro"><circle cx="33" cy="25" r="25" fill="#68B738"></circle><g clip-path="url(#icon-cat-pro_0)"><path d="M60.5591 13.8784C61.1364 12.96 61.9036 12.1757 62.8091 11.5784C63.3091 11.2284 63.6091 11.2284 63.9091 11.8784C64.3091 12.8284 64.6591 13.8284 64.3591 14.8784C64.3045 15.0565 64.2942 15.2452 64.3291 15.4282C64.3639 15.6112 64.4429 15.7829 64.5591 15.9284C64.8591 16.3284 65.1091 16.7284 65.3591 17.0784C65.6994 17.5103 65.9201 18.0241 65.9991 18.5682C66.078 19.1123 66.0125 19.6676 65.8091 20.1784C65.6256 20.6743 65.5908 21.213 65.7091 21.7284C65.809 22.2234 65.809 22.7334 65.7091 23.2284C65.6687 23.5991 65.5187 23.9494 65.2782 24.2344C65.0377 24.5194 64.7177 24.7262 64.3591 24.8284C63.7196 24.9501 63.1488 25.3069 62.7591 25.8284C62.7119 25.9052 62.6457 25.9686 62.5669 26.0124C62.488 26.0562 62.3993 26.0789 62.3091 26.0784C61.7091 26.1784 60.2091 24.8284 60.2091 24.2284V23.9284C60.2591 22.1284 60.1591 21.9784 58.5091 21.2284C58.1638 21.1066 57.8544 20.9004 57.6091 20.6284C57.3091 20.2284 56.9091 20.2784 56.4591 20.4284C56.0091 20.5784 55.7591 20.8784 55.8091 21.3784C55.9599 22.5889 56.0101 23.8097 55.9591 25.0284C55.9624 25.1675 55.9966 25.3041 56.0591 25.4284C57.6091 27.6784 58.2091 30.3284 58.9591 32.8784C59.5591 34.8284 60.6591 35.8784 62.6591 36.0284C62.9792 36.054 63.2968 36.1041 63.6091 36.1784C64.02 36.2444 64.4017 36.4322 64.7048 36.7174C65.0078 37.0027 65.2183 37.3723 65.3091 37.7784C65.6591 38.8284 65.4591 39.0784 64.4091 39.0784H61.1591C60.7384 39.0997 60.3259 38.9562 60.0091 38.6784C59.5031 38.2514 58.9282 37.9132 58.3091 37.6784C57.6247 37.4258 57.0323 36.9728 56.6091 36.3784C56.0234 35.5602 55.3531 34.806 54.6091 34.1284C53.2091 32.6784 51.7091 31.2784 50.4091 29.7784C49.4195 28.7563 48.8486 27.4006 48.8091 25.9784C48.8091 25.5284 48.7091 25.3284 48.2091 25.5284C48.0594 25.6234 47.8864 25.6753 47.7091 25.6784C46.3091 25.6784 45.6091 26.5284 45.1091 27.7784C44.6591 28.8284 44.0591 29.8284 43.5091 30.8784C43.1972 31.5357 43.0269 32.2511 43.0091 32.9784C43.0091 34.1784 43.3091 34.5784 44.4091 34.9784C45.1091 35.2284 45.7591 35.4784 46.1091 36.1784C46.5091 36.9784 46.4091 37.1784 45.5591 37.2284H42.1591C41.9631 37.2478 41.7659 37.2052 41.5955 37.1065C41.425 37.0078 41.2899 36.8581 41.2091 36.6784L40.3091 35.1784C40.0438 34.7871 39.874 34.3389 39.8132 33.87C39.7524 33.4011 39.8024 32.9245 39.9591 32.4784C40.1755 31.6102 40.1926 30.7042 40.0091 29.8284C39.8831 29.2185 39.8939 28.5882 40.0409 27.9829C40.1879 27.3777 40.4674 26.8126 40.8591 26.3284C41.1591 25.9784 41.1591 25.8284 40.6591 25.7284C38.6146 25.2941 36.6325 24.6054 34.7591 23.6784C34.7459 23.6784 34.7331 23.6732 34.7238 23.6638C34.7144 23.6544 34.7091 23.6417 34.7091 23.6284C33.1091 23.0284 32.8091 23.1284 32.3591 24.7784C31.9591 26.1784 31.5591 27.5784 31.2591 29.0284C30.9091 30.6284 31.3091 32.1284 31.8091 33.6284C32.0091 34.2284 32.6091 34.1784 33.0591 34.3284C34.0591 34.6284 34.9091 35.0284 35.3091 36.0784C35.6591 36.8784 35.6091 36.9784 34.7591 36.9784C33.9091 36.9784 33.0591 36.9284 32.1591 36.9784C31.3997 36.9922 30.6584 36.7451 30.0591 36.2784C27.6591 34.6784 26.9591 32.2284 26.7591 29.5784C26.6591 27.9284 25.7591 26.6284 24.7091 25.3784C24.5091 25.1284 24.3091 25.0284 24.0091 25.2284C22.9359 25.8202 21.8153 26.3219 20.6591 26.7284C18.2462 27.5804 16.1289 29.1077 14.5591 31.1284C13.9729 31.8659 13.5933 32.746 13.4591 33.6784C13.3091 34.5784 13.5591 34.9784 14.4591 35.2284C15.3591 35.4784 15.8091 35.9784 15.9091 36.9284C15.9591 37.3284 15.8091 37.5284 15.4091 37.5284H11.3591C11.2266 37.519 11.0982 37.4778 10.9851 37.4081C10.8719 37.3385 10.7772 37.2425 10.7091 37.1284C10.081 36.3508 9.74494 35.3779 9.75912 34.3784C9.73288 32.6509 9.88366 30.9252 10.2091 29.2284C10.2759 28.7203 10.4656 28.2361 10.7618 27.8178C11.0581 27.3996 11.4519 27.06 11.9091 26.8284C14.8591 25.4284 16.4091 22.7784 17.8091 20.0284C18.1091 19.4784 17.8591 19.3784 17.3591 19.4284C15.9598 19.6227 14.634 20.1737 13.5091 21.0284C12.0362 22.1029 10.6487 23.2897 9.35912 24.5784C7.98394 25.9753 6.16046 26.8427 4.20911 27.0284C0.559114 27.2284 -1.14089 25.1784 -0.990885 21.8784C-0.957354 20.7532 -0.533061 19.6748 0.209115 18.8284C0.467126 18.4939 0.818981 18.2439 1.21975 18.1103C1.62052 17.9767 2.05201 17.9656 2.45912 18.0784C3.20912 18.2784 3.40911 18.6784 3.10911 19.4284C2.95911 19.7284 2.75911 19.9784 2.60911 20.2784C2.39341 20.5849 2.22488 20.922 2.10911 21.2784C1.55911 22.7784 2.30911 23.8284 3.85911 23.9784C5.50911 24.1284 6.85912 23.4284 8.10912 22.4284C9.61508 21.2226 10.9595 19.8277 12.1091 18.2784C12.9687 17.1471 14.0512 16.2041 15.2895 15.5075C16.5279 14.8109 17.8959 14.3756 19.3091 14.2284C20.4591 14.0784 21.4591 13.5784 22.5591 13.2784C24.6164 12.6512 26.7586 12.3476 28.9091 12.3784C29.9052 12.4199 30.8974 12.2317 31.8091 11.8284C34.2591 10.8284 36.8091 10.8284 39.3591 11.3284C41.3591 11.7284 43.3591 12.2284 45.3091 12.7284C46.4696 12.9447 47.6629 12.9106 48.8091 12.6284C51.0034 12.0722 53.248 11.7372 55.5091 11.6284C56.9904 11.5564 58.4667 11.8482 59.8091 12.4784C60.8091 12.9284 60.8091 12.9284 60.5591 13.8784Z" fill="black"></path></g><defs><clipPath id="icon-cat-pro_0"><rect width="67" height="28" fill="white" transform="translate(0 11)"></rect></clipPath></defs></svg><svg viewBox="0 0 50 53" fill="none" id="icon-cat-slim"><circle cx="25" cy="28" r="25" fill="#68B738"></circle><g clip-path="url(#icon-cat-slim_0)"><path d="M35.2034 0H35.008C34.6778 0.187081 34.415 0.473924 34.2571 0.819588C33.968 1.37738 33.7453 1.96735 33.5937 2.57732C33.5612 2.76073 33.4688 2.92811 33.331 3.05315C33.1932 3.17818 33.0179 3.25377 32.8326 3.26804C32.2658 3.36597 31.7288 3.59243 31.2626 3.93012C30.7965 4.26781 30.4135 4.7078 30.1429 5.21649C29.7708 5.87697 29.4526 6.5665 29.1914 7.27835C28.4611 9.17526 27.9006 11.134 27.2114 13.0464C26.8874 13.9175 26.872 13.9175 25.8949 13.9175C24.7274 13.9175 24.8097 13.7371 24.7943 15.0258C24.7943 15.433 24.9177 15.6392 25.3497 15.6186C25.4834 15.6186 25.684 15.5515 25.7354 15.7268C25.7869 15.9021 25.612 15.9794 25.5091 16.0825C24.8994 16.7029 24.1276 17.1388 23.2823 17.3402C22.3051 17.6031 21.3074 17.8093 20.356 18.1289C17.9131 18.9485 15.6554 20.0928 13.8966 22.0309C12.8681 23.2347 12.0445 24.6001 11.4589 26.0722C9.57143 30.5258 8.656 35.2165 7.94629 39.9536C7.612 42.1753 7.37543 44.4072 7.19543 46.6546C7.10286 47.7577 7 48.8763 7 50H24.1411C24.1696 49.7731 24.1283 49.5429 24.0229 49.3402C23.858 48.9289 23.5901 48.5672 23.2451 48.29C22.9 48.0128 22.4895 47.8295 22.0531 47.7577C21.6931 47.6753 21.652 47.567 21.8731 47.2835C22.2338 46.801 22.5103 46.2607 22.6909 45.6856C23.5291 43.2062 23.8531 40.6186 24.2594 38.0567C24.4889 36.0999 25.0894 34.2051 26.0286 32.4742C26.7611 31.2002 27.7382 30.0842 28.9034 29.1907C29.3303 28.866 29.3457 28.866 29.4177 29.4175C29.4691 29.7835 29.4794 30.1598 29.5051 30.5309C29.6595 32.9662 29.6285 35.4097 29.4126 37.8402C29.2184 39.7242 29.1926 41.6217 29.3354 43.5103C29.5399 45.7029 29.9304 47.8739 30.5029 50H37.3429C37.2536 49.442 36.9973 48.9243 36.6078 48.5156C36.2184 48.1069 35.7143 47.8264 35.1623 47.7113C34.5177 47.6087 33.8587 47.6438 33.2286 47.8144C32.92 47.8866 32.7914 47.8144 32.7657 47.4794C32.5529 44.7505 32.7261 42.0051 33.28 39.3247C33.966 36.2304 34.4912 33.1025 34.8537 29.9536C34.9887 28.6819 35.3881 27.4528 36.0263 26.3454C36.6383 25.2526 37.1731 24.1186 37.7749 23.0206C38.0138 22.6214 38.1575 22.1723 38.195 21.7083C38.2325 21.2443 38.1626 20.7779 37.9909 20.3454C37.852 19.9794 37.7183 19.6082 37.5486 19.2577C37.0343 18.2526 36.52 17.2577 36.0469 16.2423C35.7949 15.7268 35.8514 15.6649 36.412 15.6495C37.2503 15.6495 37.2503 15.6495 37.2657 14.8041C37.2657 14.6907 37.2657 14.5773 37.2657 14.4639C37.2657 14.1082 37.132 13.9124 36.7514 13.9485C36.4943 13.9485 36.2371 13.9485 35.9697 13.9485C35.6149 13.9485 35.512 13.799 35.5994 13.433C35.7729 12.838 36.1142 12.306 36.5823 11.9009C37.0503 11.4958 37.6252 11.2349 38.2377 11.1495C39.3772 11.0505 40.5251 11.1252 41.6423 11.3711C41.7712 11.4118 41.9109 11.4001 42.0312 11.3383C42.1515 11.2766 42.2427 11.1699 42.2851 11.0412C42.4909 10.5258 42.7171 10.0103 42.9486 9.49484C43.001 9.40339 43.0242 9.29801 43.015 9.19293C43.0058 9.08785 42.9647 8.98812 42.8971 8.90722C41.2514 6.81443 39.4669 4.86082 37.0343 3.60825C36.9168 3.55754 36.8138 3.47814 36.7347 3.3773C36.6557 3.27646 36.6031 3.15738 36.5817 3.03093C36.444 2.29408 36.225 1.57487 35.9286 0.886598C35.7895 0.519904 35.5349 0.20865 35.2034 0V0Z" fill="black"></path></g><defs><clipPath id="icon-cat-slim_0"><rect width="36" height="50" fill="white" transform="translate(7)"></rect></clipPath></defs></svg><svg viewBox="0 0 26 30" fill="none" id="icon-fork"><path fill-rule="evenodd" clip-rule="evenodd" d="M19.1173 0.0761497C19.491 -0.0786313 19.9211 0.00692445 20.2071 0.292922C21.1156 1.20142 22.3038 3.17065 23.2659 6.21082C24.2373 9.28039 25 13.5081 25 19C25 19.5523 24.5523 20 24 20H20.5V29C20.5 29.5523 20.0523 30 19.5 30C18.9477 30 18.5 29.5523 18.5 29V1.00003C18.5 0.595567 18.7436 0.230931 19.1173 0.0761497ZM20.5 18H22.9912C22.9053 13.1836 22.2051 9.48755 21.3591 6.81424C21.0807 5.93457 20.7885 5.1715 20.5 4.51895V18Z" fill="white"></path><path fill-rule="evenodd" clip-rule="evenodd" d="M6.5 0C7.05228 0 7.5 0.447715 7.5 1V29C7.5 29.5523 7.05228 30 6.5 30C5.94772 30 5.5 29.5523 5.5 29V1C5.5 0.447715 5.94772 0 6.5 0Z" fill="white"></path><path fill-rule="evenodd" clip-rule="evenodd" d="M2 0C2.55228 0 3 0.447715 3 1V6.5C3 7.05686 3.19203 7.81518 3.70088 8.41656C4.18001 8.98281 5.01446 9.5 6.49993 9.5C7.05221 9.5 7.49993 9.94771 7.49993 10.5C7.49993 11.0523 7.05221 11.5 6.49993 11.5C4.48547 11.5 3.06995 10.7672 2.1741 9.70844C1.30797 8.68482 1 7.44314 1 6.5V1C1 0.447715 1.44772 0 2 0Z" fill="white"></path><path fill-rule="evenodd" clip-rule="evenodd" d="M11 0C10.4477 0 10 0.447715 10 1V6.5C10 7.05686 9.80797 7.81518 9.29912 8.41656C8.81999 8.98281 7.9854 9.5 6.49993 9.5C5.94765 9.5 5.50007 9.94771 5.50007 10.5C5.50007 11.0523 5.94765 11.5 6.49993 11.5C8.51439 11.5 9.93005 10.7672 10.8259 9.70844C11.692 8.68482 12 7.44314 12 6.5V1C12 0.447715 11.5523 0 11 0Z" fill="white"></path></svg><svg viewBox="0 0 78 81" fill="none" id="icon-gift"><path d="M64.02 35.63h-49.99a3.18 3.18 0 0 1-3.18-3.16v-9.47a3.18 3.18 0 0 1 3.18-3.16h49.98a3.17 3.17 0 0 1 3.19 3.16v9.47a3.17 3.17 0 0 1-3.18 3.16Zm-49.99-13.37c-.4 0-.74.34-.74.74v9.47c0 .4.33.74.74.74h49.98c.41 0 .75-.33.75-.74v-9.47c0-.4-.34-.74-.75-.74h-49.98Z" fill="#fff"></path><path d="M57.04 68.08h-36.04a6.11 6.11 0 0 1-6.13-6.09v-27.57c0-.67.55-1.21 1.22-1.21.68 0 1.22.54 1.22 1.21v27.57a3.68 3.68 0 0 0 3.69 3.67h36.04a3.68 3.68 0 0 0 3.7-3.67v-27.57a1.22 1.22 0 0 1 2.44 0v27.57a6.11 6.11 0 0 1-6.14 6.1Z" fill="#fff"></path><path d="M39.02 68.08c-.67 0-1.22-.54-1.22-1.2v-32.46c0-.67.55-1.21 1.22-1.21.68 0 1.22.54 1.22 1.21v32.45c0 .67-.54 1.21-1.22 1.21Zm-15.21-45.82a7.81 7.81 0 0 1-3.17-10.6 7.9 7.9 0 0 1 10.66-3.16c5.82 3.13 8.96 11.86 9.09 12.23l-2.3.8c-.03-.08-2.96-8.22-7.95-10.9a5.45 5.45 0 0 0-7.36 2.17 5.4 5.4 0 0 0 2.2 7.33l-1.17 2.13Z" fill="#fff"></path><path d="m54.23 22.26-1.16-2.14a5.38 5.38 0 0 0-1.03-9.92 5.42 5.42 0 0 0-4.14.43c-4.98 2.68-7.91 10.82-7.94 10.9l-2.3-.8c.13-.37 3.27-9.1 9.08-12.23a7.86 7.86 0 0 1 11.29 9.1c-.6 2-1.95 3.66-3.8 4.66Zm7.72 29.6h-45.86c-.67 0-1.22-.55-1.22-1.21 0-.67.55-1.22 1.22-1.22h45.86a1.21 1.21 0 1 1 0 2.42Z" fill="#fff"></path></svg><svg viewBox="0 0 25 28" fill="none" id="icon-leaf"><path d="M24.8438 0.767C24.7434 0.317 24.3647 0 23.9325 0C23.9306 0 23.9288 0 23.9269 0C18.9891 0.033 6.98156 0.916 2.13375 8.38C-0.384376 12.258 -0.600938 17.293 1.48969 23.345C1.50562 23.392 1.53844 23.424 1.56 23.467C0.812812 25.44 0.523125 26.753 0.515624 26.79C0.406875 27.33 0.730312 27.862 1.23656 27.978C1.30219 27.993 1.36781 28 1.43344 28C1.86562 28 2.25469 27.679 2.34937 27.21C2.36906 27.108 4.75781 16.837 13.2028 10.832C13.6341 10.526 13.7503 9.905 13.4625 9.445C13.1747 8.985 12.5934 8.86 12.1622 9.168C7.37344 12.573 4.42406 17.176 2.68969 20.824C1.44844 16.246 1.77375 12.447 3.67594 9.519C7.41937 3.755 16.2984 2.365 21.6581 2.071C20.505 3.872 19.245 7.174 19.245 13C19.245 16.12 18.4153 18.522 16.7803 20.14C14.1591 22.731 9.90094 22.974 6.78656 22.724C6.26906 22.679 5.82 23.095 5.78062 23.646C5.74125 24.196 6.12844 24.676 6.64406 24.718C7.2675 24.769 7.93313 24.8 8.625 24.8C11.7956 24.8 15.4941 24.137 18.0544 21.606C20.0888 19.595 21.12 16.7 21.12 13.001C21.12 3.902 24.3356 1.905 24.3516 1.896C24.7416 1.687 24.9459 1.219 24.8438 0.767Z" fill="white"></path></svg><svg viewBox="0 0 27 31" id="icon-watch"><path d="M6.12057 0C5.0538 0 5.0538 1.5831 6.12057 1.5831H12.7878V3.18731C5.96055 3.62002 0.562721 9.41417 0.562721 16.4854C0.562721 20.4959 2.31222 24.1159 5.07514 26.5539C5.55518 26.976 5.61919 27.7254 5.18181 28.1897L3.64567 29.7412C2.89894 30.4272 4.00837 31.4931 4.68043 30.7438L6.68595 28.7069C7.03798 28.3692 7.5607 28.2847 7.99807 28.4958C9.72279 29.3397 11.6191 29.784 13.5432 29.795C15.4673 29.8059 17.3687 29.3833 19.1031 28.5591C19.5298 28.348 20.0632 28.4325 20.4045 28.7702L22.3461 30.7438C23.0288 31.377 24.0102 30.4272 23.3915 29.7412L21.9407 28.2636C21.4926 27.8098 21.5567 27.0605 22.0474 26.6277C23.5031 25.3585 24.6674 23.7959 25.4623 22.0447C26.2571 20.2936 26.6641 18.3944 26.6558 16.4748C26.6558 9.40362 21.226 3.59891 14.388 3.18731V1.5831H21.0553C22.122 1.5831 22.122 0 21.0553 0H6.12057ZM2.00285 16.4748C2.00285 9.94187 7.198 4.65431 13.6093 4.65431C20.0098 4.65431 25.205 9.94187 25.205 16.4748C25.205 23.0183 20.0098 28.3164 13.6093 28.3164C7.20867 28.3164 2.00285 23.0183 2.00285 16.4748ZM12.7985 8.37988C12.7985 7.28226 14.4627 7.28226 14.4627 8.37988V17.0131C14.4627 17.237 14.3728 17.4517 14.2127 17.6101C14.0527 17.7684 13.8356 17.8574 13.6093 17.8574C13.3961 17.8574 13.1915 17.7743 13.0397 17.6262C12.888 17.478 12.8013 17.2767 12.7985 17.0658V8.37988ZM7.80605 10.9973C8.11444 10.9973 8.4102 10.8761 8.62826 10.6603C8.84632 10.4446 8.96883 10.152 8.96883 9.84688C8.96883 9.54178 8.84632 9.24918 8.62826 9.03344C8.4102 8.8177 8.11444 8.6965 7.80605 8.6965C7.51825 8.72386 7.25108 8.85633 7.05666 9.06805C6.86224 9.27977 6.75453 9.55556 6.75453 9.84161C6.75453 10.1277 6.86224 10.4034 7.05666 10.6152C7.25108 10.8269 7.51825 10.9593 7.80605 10.9867V10.9973ZM19.4018 10.9973C19.7102 10.9973 20.0059 10.8761 20.224 10.6603C20.4421 10.4446 20.5646 10.152 20.5646 9.84688C20.5646 9.54178 20.4421 9.24918 20.224 9.03344C20.0059 8.8177 19.7102 8.6965 19.4018 8.6965C19.114 8.72386 18.8468 8.85633 18.6524 9.06805C18.458 9.27977 18.3503 9.55556 18.3503 9.84161C18.3503 10.1277 18.458 10.4034 18.6524 10.6152C18.8468 10.8269 19.114 10.9593 19.4018 10.9867V10.9973ZM8.96883 23.5882C8.96883 25.1185 6.64328 25.1185 6.64328 23.5882C6.64328 22.0579 8.96883 22.0579 8.96883 23.5882ZM13.6093 27.0288C13.7706 27.0441 13.9334 27.0259 14.0872 26.9754C14.241 26.9248 14.3824 26.843 14.5024 26.7352C14.6223 26.6273 14.7182 26.4959 14.7838 26.3493C14.8494 26.2026 14.8833 26.044 14.8833 25.8837C14.8833 25.7233 14.8494 25.5648 14.7838 25.4181C14.7182 25.2715 14.6223 25.14 14.5024 25.0322C14.3824 24.9244 14.241 24.8426 14.0872 24.792C13.9334 24.7414 13.7706 24.7232 13.6093 24.7386C13.3215 24.7659 13.0543 24.8984 12.8599 25.1101C12.6654 25.3219 12.5577 25.5976 12.5577 25.8837C12.5577 26.1697 12.6654 26.4455 12.8599 26.6572C13.0543 26.869 13.3215 27.0014 13.6093 27.0288ZM5.49117 16.6437C5.50668 16.8033 5.48829 16.9643 5.43717 17.1165C5.38606 17.2687 5.30336 17.4086 5.19437 17.5273C5.08539 17.646 4.95252 17.7408 4.80431 17.8057C4.6561 17.8706 4.49581 17.9041 4.33373 17.9041C4.17166 17.9041 4.01137 17.8706 3.86316 17.8057C3.71494 17.7408 3.58208 17.646 3.4731 17.5273C3.36411 17.4086 3.28141 17.2687 3.23029 17.1165C3.17918 16.9643 3.16079 16.8033 3.17629 16.6437C3.20396 16.3589 3.33785 16.0946 3.55185 15.9023C3.76585 15.7099 4.04461 15.6033 4.33373 15.6033C4.62286 15.6033 4.90162 15.7099 5.11562 15.9023C5.32962 16.0946 5.46351 16.3589 5.49117 16.6437ZM22.8794 17.794C23.0408 17.8094 23.2036 17.7912 23.3574 17.7406C23.5112 17.6901 23.6526 17.6082 23.7726 17.5004C23.8925 17.3926 23.9884 17.2611 24.054 17.1145C24.1196 16.9679 24.1535 16.8093 24.1535 16.6489C24.1535 16.4886 24.1196 16.33 24.054 16.1834C23.9884 16.0367 23.8925 15.9053 23.7726 15.7975C23.6526 15.6896 23.5112 15.6078 23.3574 15.5573C23.2036 15.5067 23.0408 15.4885 22.8794 15.5038C22.5916 15.5312 22.3245 15.6637 22.13 15.8754C21.9356 16.0871 21.8279 16.3629 21.8279 16.6489C21.8279 16.935 21.9356 17.2108 22.13 17.4225C22.3245 17.6342 22.5916 17.7667 22.8794 17.794ZM20.5646 23.5987C20.5646 25.1185 18.239 25.1185 18.239 23.5882C18.239 22.0579 20.5646 22.0579 20.5646 23.5882V23.5987Z" fill="white"></path></svg><svg viewBox="0 0 27 29" fill="none" id="icon-water"><path d="M11.375 0C9.74375 0 8.475 1.35937 8.475 3.08125C8.475 4.80312 9.74375 6.1625 11.375 6.1625C13.0063 6.1625 14.275 4.80312 14.275 3.08125C14.275 1.35937 13.0063 0 11.375 0ZM11.375 1.17812C12.3719 1.17812 13.0969 2.02094 13.0969 3.08125C13.0969 4.07812 12.3084 4.98438 11.375 4.98438C10.3781 4.98438 9.65313 4.14156 9.65313 3.08125C9.65313 2.08437 10.4325 1.17812 11.375 1.17812ZM0.5 24.7406C0.5 25.9188 0.907813 26.9156 1.85938 27.7313C2.85625 28.5831 4.03438 28.5106 4.03438 28.5106H23.0656C23.845 28.5106 24.8781 28.13 25.6937 27.0606C26.5366 26.0638 26.4822 24.7044 26.4822 24.7044V7.48563C26.4822 7.05063 26.3734 6.8875 25.7391 6.8875C25.1047 6.8875 25.0503 7.15938 25.0503 7.47656V24.6953C25.0322 24.9944 24.9778 25.7828 24.3072 26.4172C23.5731 27.0425 22.8572 26.9609 22.8572 26.9609C22.8572 26.9609 4.73219 26.9609 3.82594 26.9338C3.48156 26.8703 2.91969 26.7434 2.37594 26.0275C1.86844 25.3025 1.96812 24.3962 1.96812 24.3962V7.1775C1.96812 6.71531 1.7325 6.54313 1.24313 6.54313C0.75375 6.54313 0.5 6.71531 0.5 7.12313V24.7406ZM16.8125 8.42813C15.725 8.66375 14.6375 8.80875 12.5531 10.7844C10.4688 12.7781 8.92813 12.6875 7.3875 12.5969C5.84688 12.5063 4.21563 11.0563 3.94375 10.6938C3.60844 10.3403 3.0375 10.5759 2.85625 10.8116C2.70219 11.0472 2.70219 11.455 2.965 11.8084C4.23375 12.9866 5.41188 13.8928 7.6775 14.0741C9.94312 14.2916 12.1181 13.2675 13.5681 11.8084C15.0181 10.3584 15.7431 10.0866 16.8306 9.90531C19.4587 9.48844 20.9994 10.5216 21.9056 11.1741C22.9025 12.2616 23.1744 11.9534 23.4462 11.6453C23.99 10.9294 23.2197 10.3766 22.3588 9.74219C20.5463 8.56406 18.8244 8.11094 16.8306 8.47344L16.8125 8.42813ZM7.75 15.5875C6.57188 15.5875 5.66562 16.5844 5.66562 17.8531C5.66562 19.1219 6.57188 20.1188 7.75 20.1188C8.92813 20.1188 9.83438 19.1219 9.83438 17.8531C9.83438 16.5844 8.92813 15.5875 7.75 15.5875ZM19.5312 16.3669C17.9906 16.3669 16.7219 17.7262 16.7219 19.3575C16.7219 20.9888 17.9906 22.3481 19.5312 22.3481C21.0719 22.3481 22.3406 20.9888 22.3406 19.3575C22.3406 17.7262 21.0719 16.3669 19.5312 16.3669ZM19.5312 17.8169C20.3288 17.8169 20.9813 18.5147 20.9813 19.3575C20.9813 20.2184 20.3288 20.8981 19.5312 20.8981C18.7337 20.8981 18.0812 20.2003 18.0812 19.3575C18.0812 18.4966 18.7337 17.8169 19.5312 17.8169Z" fill="white"></path></svg><svg viewBox="0 0 101 18" fill="none" id="logo-text"><g clip-path="url(#logo-text_0)"><path d="M1.26449 16.5385C0.36955 15.2762 -0.0747041 13.7627 1.02073e-05 12.2308V5.84615C-0.108365 4.29774 0.308071 2.75746 1.18546 1.46154C2.05478 0.461538 3.39829 0 5.37403 0C7.34978 0 8.61425 0.461538 9.40455 1.30769C10.2626 2.37941 10.6846 3.72136 10.59 5.07692V6.61539H6.71754V4.84615C6.74881 4.32289 6.66808 3.799 6.48045 3.30769C6.38016 3.10938 6.2212 2.9448 6.02403 2.83513C5.82686 2.72547 5.60049 2.67572 5.37403 2.69231C4.82082 2.69231 4.42568 2.84615 4.26762 3.23077C4.08883 3.77733 4.00862 4.34988 4.03053 4.92308V13.1538C3.98879 13.71 4.0978 14.267 4.34665 14.7692C4.5047 15.1538 4.89985 15.3077 5.45306 15.3077C6.00627 15.3077 6.32239 15.1538 6.48045 14.7692C6.66013 14.2494 6.74049 13.7019 6.71754 13.1538V11.3077H10.59V12.8462C10.6704 14.2238 10.2508 15.5852 9.40455 16.6923C8.61425 17.6154 7.27075 18.0769 5.37403 18.0769C3.47732 18 2.05478 17.5385 1.26449 16.5385Z" fill="#111111"></path><path d="M15.2527 0.23077H19.7574L23.0767 17.7692H19.4413L18.8091 14.0769H16.2011L15.5689 17.7692H11.8545L15.2527 0.23077ZM18.493 11.7692L17.5446 4.92308L16.5962 11.7692H18.493Z" fill="#111111"></path><path d="M25.8427 3.15385H23.1557V0.23077H32.5602V3.07692H29.8732V17.7692H25.8427V3.15385Z" fill="#111111"></path><path d="M39.7519 0.23077H46.7066V2.07692H42.2019V7.84615H45.8372V9.61539H42.2019V16.0769H46.7066V17.8462H39.6729V0.23077H39.7519Z" fill="#111111"></path><path d="M48.7613 0.23077H50.5L55.6369 11.8462V0.23077H57.6917V17.7692H56.1111L50.8951 5.76923V17.7692H48.7613V0.23077Z" fill="#111111"></path><path d="M60.0626 0.23077H67.0172V2.07692H62.5125V7.84615H66.1479V9.61539H62.5125V16.0769H67.0172V17.8462H60.0626V0.23077Z" fill="#111111"></path><path d="M69.072 0.23077H72.7074C74.1375 0.134618 75.5587 0.514353 76.7379 1.30769C77.6072 2 78.0024 3.23077 78.0024 4.84616C78.0024 7.07692 77.2911 8.46154 75.7895 8.92308L78.3185 17.6923H75.8686L73.4977 9.46154H71.5219V17.6923H68.993V0.23077H69.072ZM72.5493 7.76923C73.364 7.83458 74.1761 7.61652 74.8412 7.15385C75.3154 6.76923 75.5524 6 75.5524 4.84616C75.5743 4.27296 75.4941 3.7004 75.3154 3.15385C75.1375 2.76166 74.832 2.4373 74.446 2.23077C73.9017 1.98934 73.3042 1.8836 72.7074 1.92308H71.601V7.69231H72.5493V7.76923Z" fill="#111111"></path><path d="M81.1635 16.4615C80.342 15.1166 79.9564 13.5617 80.0571 12V6.15384C80.0376 5.0391 80.1705 3.92679 80.4522 2.84615C80.7167 2.03863 81.2437 1.33668 81.9538 0.84615C82.8362 0.337746 83.8542 0.0967275 84.8779 0.153842C86.5375 0.153842 87.723 0.538458 88.4342 1.38461C89.2524 2.50191 89.6438 3.86237 89.5407 5.23077V5.84615H87.1698V5.30769C87.1733 4.66346 87.1205 4.0201 87.0117 3.38461C86.9451 2.98303 86.7177 2.62348 86.3795 2.38461C85.9353 2.10082 85.4081 1.96578 84.8779 2C84.3112 1.96465 83.7504 2.12843 83.2973 2.46154C83.1114 2.61401 82.9595 2.80181 82.8507 3.01344C82.742 3.22507 82.6788 3.45608 82.6651 3.6923C82.5609 4.37999 82.5081 5.07411 82.507 5.76923V12.3077C82.4488 13.3038 82.6104 14.3006 82.9812 15.2308C83.2973 15.8462 83.9295 16.0769 84.8779 16.0769C85.2523 16.1223 85.6322 16.0589 85.9697 15.8947C86.3072 15.7304 86.5873 15.4727 86.7746 15.1538C87.1922 14.1811 87.3812 13.1299 87.3278 12.0769V10.8462H85.036V9.07692H89.6197V17.7692H88.0391L87.802 15.7692C87.5948 16.4395 87.1634 17.0231 86.5763 17.4273C85.9892 17.8315 85.2801 18.0331 84.5618 18C83.9088 18.0374 83.2564 17.9164 82.6633 17.6479C82.0702 17.3794 81.5548 16.9717 81.1635 16.4615Z" fill="#111111"></path><path d="M94.6776 11.6154L90.8052 0.307692H93.1761L95.9421 8.76923L98.6291 0.307692H101L97.1276 11.6154V17.7692H94.7567V11.6154H94.6776Z" fill="#111111"></path></g><defs><clipPath id="logo-text_0"><rect width="101" height="18" fill="white"></rect></clipPath></defs></svg><svg viewBox="0 0 18 14" fill="none" id="mail-icon"><path d="M.5 5.5v8h17v-8m-17-5h17v2l-8.5 6-8.5-6v-2Z" stroke="#000" stroke-linecap="round" stroke-linejoin="round"></path></svg><svg viewBox="0 0 71 227" fill="none" id="one"><path d="M40.37 227v-187.6c-.18.19-2.33.75-6.44 1.68-3.92.93-8.4 1.87-13.44 2.8-5.04.93-9.52 1.77-13.44 2.52s-5.97 1.12-6.16 1.12v-22.68c3.18-.75 6.82-1.77 10.92-3.08 4.3-1.3 8.59-2.9 12.88-4.76a63.87 63.87 0 0 0 12.6-7 43.3 43.3 0 0 0 10.36-9.8h22.68v226.8h-29.96Z" fill="#F2F2F2"></path></svg><svg viewBox="0 0 20 20" fill="none" id="phone-icon"><path d="M10 10h8.5m0 0-2.5-2.5m2.5 2.5-2.5 2.5m-7.5-10v5h-3v5h3v5h-2.5c-1.5 0-2.5-1-2.5-2.5v-10c0-1.5 1-2.5 2.5-2.5h2.5Z" stroke="#000" stroke-linecap="round" stroke-linejoin="round"></path></svg><svg viewBox="0 0 60 60" fill="none" id="plus"><path stroke="#D3D3D3" stroke-width="2" d="M31 0v60m29-29h-60"></path></svg><svg viewBox="0 0 24 18" fill="none" id="slider-arrows"><path d="m8 0-8 9 8 9v-18Zm16 9-8-9v18l8-9Z" fill="#666"></path></svg><svg viewBox="0 0 40 258" fill="none" id="state-default"><rect x="18" width="4" height="257.02" rx="2" fill="#666"></rect><rect x="1" y="110" width="38" height="38" rx="19" fill="#fff"></rect><rect x="1" y="110" width="38" height="38" rx="19" stroke="#666" stroke-width="2"></rect><path d="m16 120-8 9 8 9v-18Zm16 9-8-9v18l8-9Z" fill="#666"></path></svg><svg viewBox="0 0 28 22" fill="none" id="telegram"><path fill-rule="evenodd" clip-rule="evenodd" d="M23.46 3.15c.18.15.27.38.23.61l-2.63 15.76a.66.66 0 0 1-1.01.44l-7.88-5.25a.66.66 0 0 1-.15-.96l2.61-3.26-4.36 2.9a.66.66 0 0 1-.65.05l-5.26-2.63a.66.66 0 0 1 .08-1.2l18.38-6.57a.66.66 0 0 1 .64.11Zm-17.13 7.17 3.53 1.77 7.56-5.04a.66.66 0 0 1 .88.96l-4.8 6 6.43 4.3 2.28-13.66-15.88 5.67Z" fill="#666"></path></svg><svg viewBox="0 0 112 232" fill="none" id="three"><path d="M55.92 231.52c-12.32 0-22.59-2.33-30.8-7a44.06 44.06 0 0 1-18.48-20.16c-4.1-8.77-6.16-19.13-6.16-31.08v-7.56h29.68v5.04a88.2 88.2 0 0 0 2.24 18.2c1.5 5.41 4.01 9.7 7.56 12.88 3.73 3.17 9.05 4.76 15.96 4.76 7.28 0 12.79-1.68 16.52-5.04 3.73-3.55 6.25-8.5 7.56-14.84 1.3-6.35 1.96-13.63 1.96-21.84 0-11.95-2.24-21.65-6.72-29.12-4.3-7.65-11.95-11.85-22.96-12.6a7.27 7.27 0 0 0-2.24-.28h-1.96v-29.96h3.92c10.64-.37 18.3-3.17 22.96-8.4 4.67-5.23 7-13.9 7-26.04 0-10.27-1.77-18.48-5.32-24.64-3.36-6.16-10.17-9.24-20.44-9.24-10.27 0-17.08 3.45-20.44 10.36-3.36 6.72-5.23 15.4-5.6 26.04v4.76h-29.68v-7.56c0-12.13 2.05-22.5 6.16-31.08a44.32 44.32 0 0 1 18.48-19.88c8.4-4.67 18.76-7 31.08-7 12.5 0 22.87 2.33 31.08 7a44.05 44.05 0 0 1 18.48 20.16c4.1 8.59 6.16 18.95 6.16 31.08 0 13.63-2.98 24.55-8.96 32.76-5.79 8.21-13.63 13.81-23.52 16.8 6.9 2.05 12.7 5.6 17.36 10.64 4.86 5.04 8.59 11.48 11.2 19.32 2.61 7.65 3.92 16.61 3.92 26.88 0 13.44-1.86 25.2-5.6 35.28-3.73 9.9-9.7 17.64-17.92 23.24-8.21 5.41-19.04 8.12-32.48 8.12Z" fill="#F2F2F2"></path></svg><svg viewBox="0 0 113 229" fill="none" id="two"><path d="M.62 229v-21.28l57.68-89.88c4.3-6.72 8.22-12.97 11.76-18.76a86.72 86.72 0 0 0 8.96-18.2c2.43-6.53 3.64-14 3.64-22.4 0-10.45-1.68-18.67-5.04-24.64-3.36-5.97-9.24-8.96-17.64-8.96-7.09 0-12.6 1.96-16.52 5.88s-6.62 9.05-8.12 15.4a89.09 89.09 0 0 0-2.24 20.44v7.56h-29.96v-7.84c0-13.63 1.78-25.3 5.32-35 3.74-9.9 9.62-17.55 17.64-22.96 8.22-5.41 19.04-8.12 32.48-8.12 18.3 0 31.92 5.23 40.88 15.68 8.97 10.27 13.45 24.55 13.45 42.84 0 9.7-1.22 18.2-3.64 25.48a95.62 95.62 0 0 1-8.96 20.44 412.22 412.22 0 0 1-12.33 19.6l-52.08 79.52h71.69v25.2h-106.97Z" fill="#F2F2F2"></path></svg><svg viewBox="0 0 28 22" id="vkontakte"><path d="M1 5.34c0-.86.52-1.32 1.55-1.38l3.97.02c.26 0 .44.13.53.38.4 1.26.86 2.34 1.37 3.25.5.92 1.17 1.97 1.99 3.16.07.15.18.23.34.23.13 0 .22-.06.3-.18l.07-.28.03-4.35c0-.3-.07-.5-.23-.6-.15-.1-.43-.18-.83-.23-.32-.05-.48-.23-.48-.55 0-.07 0-.12.02-.15.38-1.09 1.44-1.63 3.2-1.63l1.5-.03c.67 0 1.23.16 1.67.48.44.32.67.82.67 1.5v5.72c.12.08.24.12.34.12.27 0 .5-.15.7-.45 1.95-2.58 3-4.31 3.17-5.18a.3.3 0 0 1 .05-.13c.12-.25.33-.47.61-.65.29-.19.53-.31.75-.38a.55.55 0 0 1 .24-.05h4.13l.26.03c.36 0 .63.16.83.47.07.1.12.21.15.33a2.4 2.4 0 0 1 .06.55v.18a6.11 6.11 0 0 1-.94 2.2 23.4 23.4 0 0 1-1.93 2.53c-.79.9-1.27 1.5-1.47 1.78a.93.93 0 0 0-.24.56c0 .13.07.28.21.45l3.9 4.63c.2.26.31.56.31.88 0 .38-.16.7-.48.95-.32.25-.7.4-1.14.43l-.46.02h-4.04c-.02 0-.06 0-.11.02a.86.86 0 0 1-.1.01c-.4 0-.76-.16-1.1-.48-.12-.13-.96-1.12-2.5-2.97a1.39 1.39 0 0 0-.38-.32 38.47 38.47 0 0 0-.53 2.24l-.08.42a1.4 1.4 0 0 1-1.12 1.06l-.37.02h-2.61c-1.48 0-2.95-.63-4.41-1.9a19.3 19.3 0 0 1-3.96-4.95 47.51 47.51 0 0 1-3.28-7.05 1.92 1.92 0 0 1-.13-.73Zm16.01 6.51c-.37 0-.7-.1-1.01-.29a.9.9 0 0 1-.45-.79v-5.78c0-.34-.1-.58-.27-.72-.18-.14-.49-.21-.93-.21l-1.52.05c-.76 0-1.34.12-1.73.37.78.36 1.17.93 1.17 1.71v4.43a1.5 1.5 0 0 1-.53 1.04 1.6 1.6 0 0 1-1.07.42c-.53 0-.94-.24-1.22-.73a26.16 26.16 0 0 1-3.1-5.63l-.23-.66-3.55-.02c-.23 0-.36.01-.38.03-.03.03-.04.1-.04.22 0 .15.01.3.05.48l.56 1.4c1.49 3.64 3.11 6.51 4.86 8.6 1.75 2.1 3.47 3.15 5.16 3.15h2.66c.1 0 .19-.03.24-.09.05-.06.1-.17.13-.34l.06-.25.5-2.21c.15-.3.27-.5.38-.6.2-.2.42-.28.69-.28.43 0 .86.24 1.3.73l2.27 2.71c.14.22.3.33.45.33h4.4c.53 0 .8-.13.8-.38a.47.47 0 0 0-.08-.25l-3.87-4.55c-.3-.35-.45-.73-.45-1.13 0-.4.14-.8.43-1.16.23-.34.68-.9 1.34-1.67.67-.78 1.25-1.51 1.75-2.19.5-.68.82-1.3.98-1.85l.08-.33a.37.37 0 0 1-.02-.16.54.54 0 0 0-.03-.19h-4.18c-.27.1-.48.25-.64.45l-.16.48c-.45 1.16-1.6 2.94-3.5 5.36-.36.33-.8.5-1.3.5Z"></path></svg><svg viewBox="0 0 28 22" id="youtube"><path d="m17.85 10.8-5.24-3.5a.65.65 0 0 0-1.01.55v6.98a.65.65 0 0 0 1.01.54l5.24-3.49a.65.65 0 0 0 0-1.09Zm-4.94 2.8v-4.53l3.4 2.27-3.4 2.27Zm12.48-8.56a2.4 2.4 0 0 0-1.45-1.63c-3.72-1.43-9.69-1.41-9.94-1.41s-6.22-.02-9.94 1.4a2.4 2.4 0 0 0-1.45 1.64 25.32 25.32 0 0 0-.61 6.3c0 3.26.33 5.22.61 6.3a2.4 2.4 0 0 0 1.45 1.63c3.72 1.43 9.69 1.4 9.94 1.4h.08c.75 0 6.31-.04 9.86-1.4a2.4 2.4 0 0 0 1.45-1.64c.28-1.07.61-3.03.61-6.3 0-3.25-.33-5.22-.61-6.29Zm-1.27 12.27a1.1 1.1 0 0 1-.65.74c-3.5 1.34-9.4 1.32-9.47 1.32-.07 0-5.98.02-9.47-1.32a1.09 1.09 0 0 1-.65-.74c-.27-1-.57-2.85-.57-5.97 0-3.12.3-4.97.57-5.97a1.1 1.1 0 0 1 .65-.74c3.5-1.34 9.4-1.32 9.47-1.32.07 0 5.98-.02 9.47 1.32a1.1 1.1 0 0 1 .65.74c.27 1 .57 2.85.57 5.97 0 3.12-.3 4.96-.57 5.97Z"></path></svg></svg>