<svg viewBox="0 0 168 37" fill="none" xmlns="http://www.w3.org/2000/svg"><path d="M15.69 24.5h-1.56v-5.22h-6.18v5.22h-1.56v-11.46h1.56v5.1h6.18v-5.1h1.56v11.46Zm10.6-11.46v1.3h-3.7v10.16h-1.55v-10.16h-3.72v-1.3h8.97Zm7.27 7.32a10.22 10.22 0 0 1 .36.83 6.35 6.35 0 0 1 .37-.84l3.88-7.05c.07-.12.14-.2.22-.22a1 1 0 0 1 .32-.04h1.14v11.46h-1.36v-8.42a8.56 8.56 0 0 1 .03-.76l-3.92 7.17c-.14.24-.32.36-.56.36h-.23c-.24 0-.43-.12-.56-.36l-4.01-7.19a5.5 5.5 0 0 1 .04.78v8.42h-1.36v-11.46h1.15a1 1 0 0 1 .32.04c.07.02.14.1.21.22l3.96 7.06Zm10.63 2.84h4.96v1.3h-6.5v-11.46h1.54v10.16Zm19.2 1.3h-1.2a.52.52 0 0 1-.34-.1.64.64 0 0 1-.2-.27l-1.06-2.77h-5.15l-1.07 2.77c-.04.1-.1.18-.2.26a.5.5 0 0 1-.33.11h-1.2l4.59-11.46h1.57l4.59 11.46Zm-7.52-4.26h4.28l-1.8-4.66a8.72 8.72 0 0 1-.34-1.08 15 15 0 0 1-.34 1.09l-1.8 4.65Zm14.26-2.4a.63.63 0 0 1-.12.13.3.3 0 0 1-.19.05.49.49 0 0 1-.26-.1 2.94 2.94 0 0 0-.88-.44c-.2-.07-.46-.1-.75-.1a2.32 2.32 0 0 0-1.82.82c-.2.27-.36.6-.46.97a4.96 4.96 0 0 0 .01 2.59c.11.37.27.7.47.96a2.08 2.08 0 0 0 1.72.79c.35 0 .64-.04.86-.12a2.73 2.73 0 0 0 .93-.55c.1-.09.19-.13.29-.13.12 0 .2.04.27.13l.4.52c-.35.44-.8.75-1.32.96-.53.2-1.09.3-1.67.3a3.53 3.53 0 0 1-2.55-1.09c-.32-.36-.57-.8-.76-1.32a5.33 5.33 0 0 1-.27-1.77c0-.6.08-1.16.25-1.67a3.5 3.5 0 0 1 1.93-2.19 4.2 4.2 0 0 1 1.64-.31 3.55 3.55 0 0 1 2.66 1.06l-.38.5Zm7.9 6.66h-.64a.75.75 0 0 1-.33-.06c-.09-.05-.14-.14-.17-.28l-.16-.75c-.21.2-.42.37-.62.52a3.45 3.45 0 0 1-2.2.7 3 3 0 0 1-.9-.13 1.94 1.94 0 0 1-1.2-1.06 2.4 2.4 0 0 1-.17-.96c0-.32.09-.63.27-.92.17-.3.45-.57.84-.8.4-.23.91-.41 1.55-.56a11.5 11.5 0 0 1 2.33-.25v-.63c0-.63-.14-1.1-.41-1.43-.27-.32-.67-.49-1.2-.49-.34 0-.63.05-.87.14a4.39 4.39 0 0 0-1.07.6.64.64 0 0 1-.37.12.46.46 0 0 1-.25-.07.64.64 0 0 1-.17-.2l-.26-.45a4.47 4.47 0 0 1 3.17-1.29c.46 0 .86.08 1.21.23a2.48 2.48 0 0 1 1.43 1.59c.12.38.19.8.19 1.25v5.18Zm-3.7-.87c.25 0 .48-.03.69-.07a2.92 2.92 0 0 0 1.11-.56c.17-.14.34-.29.5-.46v-1.69c-.66.02-1.22.08-1.68.16a4.9 4.9 0 0 0-1.12.32c-.28.14-.5.3-.63.47-.13.19-.19.39-.19.61 0 .22.03.4.1.55.07.16.17.29.28.39.12.1.26.17.42.21.16.05.33.07.52.07Zm11.56.87c-.2 0-.33-.1-.39-.3l-.12-.98a4.3 4.3 0 0 1-1.2 1.02c-.44.25-.95.37-1.52.37a2.66 2.66 0 0 1-2.23-1.06 3.76 3.76 0 0 1-.62-1.29 6.67 6.67 0 0 1 .02-3.45c.16-.52.4-.96.69-1.34a3.24 3.24 0 0 1 2.58-1.22 2.9 2.9 0 0 1 2.21.96v-4.5h1.43v11.79h-.85Zm-2.76-1.04c.46 0 .87-.1 1.21-.32.36-.21.68-.51.97-.9v-3.92a2.2 2.2 0 0 0-1.9-.96c-.75 0-1.33.27-1.74.81-.4.54-.6 1.3-.6 2.3 0 .53.04.99.13 1.37.09.37.22.68.4.92.18.24.4.42.65.53.25.11.55.17.88.17Zm9.2-7.2c.48 0 .93.1 1.34.26a2.95 2.95 0 0 1 1.76 1.84c.17.44.26.96.26 1.53 0 .23-.02.38-.07.45s-.14.11-.27.11h-5.4c.01.51.08.96.21 1.34.13.38.3.7.53.95.22.25.49.44.8.57.3.12.66.18 1.04.18a3.1 3.1 0 0 0 1.6-.39l.46-.26a.63.63 0 0 1 .32-.13c.12 0 .21.04.28.13l.4.52c-.18.22-.4.4-.64.56a4.67 4.67 0 0 1-1.66.6 4.2 4.2 0 0 1-2.44-.2 3.51 3.51 0 0 1-2.02-2.18 5.51 5.51 0 0 1-.03-3.44 3.45 3.45 0 0 1 1.95-2.12c.46-.2 1-.31 1.58-.31Zm.03 1.06c-.69 0-1.23.2-1.62.6-.4.4-.64.94-.74 1.64h4.4c0-.33-.04-.63-.13-.9a1.9 1.9 0 0 0-1.04-1.18 2.1 2.1 0 0 0-.87-.16Zm5.15 7.18v-8.1h.85c.2 0 .33.1.38.3l.1.82c.3-.36.64-.67 1-.9.38-.23.81-.35 1.3-.35.55 0 1 .15 1.33.45.34.3.59.72.74 1.24a2.57 2.57 0 0 1 1.06-1.3c.23-.13.47-.23.73-.3a3.31 3.31 0 0 1 1.93.12c.33.13.62.33.85.59.23.26.4.58.53.97.12.37.19.8.19 1.3v5.16h-1.43v-5.16c0-.63-.14-1.11-.41-1.44a1.5 1.5 0 0 0-1.21-.5 1.8 1.8 0 0 0-1.23.5c-.16.15-.28.35-.38.6-.1.24-.14.52-.14.84v5.16h-1.42v-5.16c0-.65-.13-1.14-.4-1.46-.25-.32-.63-.48-1.14-.48-.35 0-.68.1-.98.3-.3.18-.57.43-.82.76v6.04h-1.43Zm15.27 2.4a.79.79 0 0 1-.19.25c-.06.06-.17.1-.32.1h-1.06l1.48-3.22-3.34-7.63h1.23a.4.4 0 0 1 .29.1c.07.05.12.12.15.2l2.17 5.1.12.35.1.36.1-.36.13-.36 2.1-5.1a.44.44 0 0 1 .17-.2.43.43 0 0 1 .25-.1h1.14l-4.52 10.5Z" fill="#444"/><g clip-path="url(#a)"><path d="m154.64 1.52-.14-.02-13.5 1.4v24.61l13.5 7.99 13.5-7.99v-24.6l-13.36-1.4Zm11.6 25-11.74 6.94-11.73-6.94v-10.1l11.68 6.93.02 1.25-8.02-4.75v1.23l8.04 4.8.02 1.3-8.05-4.76v1.22l8.04 4.81 8.12-4.83v-5.21l3.62-2.15v10.26Zm0-11.57-3.23 1.88-1.48.88-7.06-4.19-.01 1.23 6.04 3.57-.06.03-.13.07-.86.5-4.98-2.95-.01 1.22 3.93 2.33-.93.61-.02.01-2.97-1.74-.01 1.23 1.94 1.13-1.98 1.19-11.62-6.87 11.63-6.96 11.8 6.83Zm0-1.22-11.8-6.92-11.67 6.91v-9.23l11.73-1.23 11.73 1.23v9.24Z" fill="#666"/></g><defs><clipPath id="a"><path fill="#fff" transform="translate(141 1.5)" d="M0 0h27v34h-27z"/></clipPath></defs></svg>